<mxfile host="app.diagrams.net" modified="2023-08-23T06:37:23.461Z" agent="Mozilla/5.0 (Macintosh; Intel Mac OS X 10_15_7) AppleWebKit/537.36 (KHTML, like Gecko) Chrome/115.0.0.0 Safari/537.36" etag="BwTUTJe352RrXiNutzt_" version="21.6.9" type="google">
  <diagram name="Page-1" id="5CnZHCSEH5LdRKdA0KLC">
    <mxGraphModel grid="1" page="1" gridSize="10" guides="1" tooltips="1" connect="1" arrows="1" fold="1" pageScale="1" pageWidth="850" pageHeight="1100" math="0" shadow="0">
      <root>
        <mxCell id="0" />
        <mxCell id="1" parent="0" />
        <mxCell id="JRJofBlBlLtypBgcl_WS-2" value="" style="rounded=0;whiteSpace=wrap;html=1;" vertex="1" parent="1">
          <mxGeometry x="340" y="270" width="1488" height="540" as="geometry" />
        </mxCell>
        <mxCell id="JRJofBlBlLtypBgcl_WS-3" value="" style="outlineConnect=0;fontColor=#232F3E;gradientColor=#945DF2;gradientDirection=north;fillColor=#5A30B5;strokeColor=#ffffff;dashed=0;verticalLabelPosition=bottom;verticalAlign=top;align=center;html=1;fontSize=12;fontStyle=0;aspect=fixed;shape=mxgraph.aws4.resourceIcon;resIcon=mxgraph.aws4.route_53;" vertex="1" parent="1">
          <mxGeometry x="790" y="432" width="60" height="60" as="geometry" />
        </mxCell>
        <mxCell id="JRJofBlBlLtypBgcl_WS-4" value="Private subnet" style="points=[[0,0],[0.25,0],[0.5,0],[0.75,0],[1,0],[1,0.25],[1,0.5],[1,0.75],[1,1],[0.75,1],[0.5,1],[0.25,1],[0,1],[0,0.75],[0,0.5],[0,0.25]];outlineConnect=0;gradientColor=none;html=1;whiteSpace=wrap;fontSize=12;fontStyle=0;container=1;pointerEvents=0;collapsible=0;recursiveResize=0;shape=mxgraph.aws4.group;grIcon=mxgraph.aws4.group_security_group;grStroke=0;strokeColor=#147EBA;fillColor=#E6F2F8;verticalAlign=top;align=left;spacingLeft=30;fontColor=#147EBA;dashed=0;" vertex="1" parent="1">
          <mxGeometry x="1432" y="420.5" width="270" height="191" as="geometry" />
        </mxCell>
        <mxCell id="JRJofBlBlLtypBgcl_WS-5" value="" style="sketch=0;points=[[0,0,0],[0.25,0,0],[0.5,0,0],[0.75,0,0],[1,0,0],[0,1,0],[0.25,1,0],[0.5,1,0],[0.75,1,0],[1,1,0],[0,0.25,0],[0,0.5,0],[0,0.75,0],[1,0.25,0],[1,0.5,0],[1,0.75,0]];outlineConnect=0;fontColor=#232F3E;gradientColor=#F78E04;gradientDirection=north;fillColor=#D05C17;strokeColor=#ffffff;dashed=0;verticalLabelPosition=bottom;verticalAlign=top;align=center;html=1;fontSize=12;fontStyle=0;aspect=fixed;shape=mxgraph.aws4.resourceIcon;resIcon=mxgraph.aws4.ec2;" vertex="1" parent="JRJofBlBlLtypBgcl_WS-4">
          <mxGeometry x="111" y="56.5" width="78" height="78" as="geometry" />
        </mxCell>
        <mxCell id="JRJofBlBlLtypBgcl_WS-6" style="edgeStyle=orthogonalEdgeStyle;rounded=0;orthogonalLoop=1;jettySize=auto;html=1;" edge="1" parent="1" source="JRJofBlBlLtypBgcl_WS-7" target="JRJofBlBlLtypBgcl_WS-3">
          <mxGeometry relative="1" as="geometry" />
        </mxCell>
        <mxCell id="JRJofBlBlLtypBgcl_WS-7" value="" style="verticalLabelPosition=bottom;html=1;verticalAlign=top;align=center;strokeColor=none;fillColor=#00BEF2;shape=mxgraph.azure.azure_website;pointerEvents=1;" vertex="1" parent="1">
          <mxGeometry x="664" y="606" width="50" height="50" as="geometry" />
        </mxCell>
        <mxCell id="JRJofBlBlLtypBgcl_WS-8" value="" style="html=1;verticalLabelPosition=bottom;align=center;labelBackgroundColor=#ffffff;verticalAlign=top;strokeWidth=2;strokeColor=#0080F0;shadow=0;dashed=0;shape=mxgraph.ios7.icons.cloud;" vertex="1" parent="1">
          <mxGeometry x="360" y="412.5" width="190" height="99.5" as="geometry" />
        </mxCell>
        <mxCell id="JRJofBlBlLtypBgcl_WS-9" value="" style="sketch=0;outlineConnect=0;fontColor=#232F3E;gradientColor=none;fillColor=#232F3D;strokeColor=none;dashed=0;verticalLabelPosition=bottom;verticalAlign=top;align=center;html=1;fontSize=12;fontStyle=0;aspect=fixed;pointerEvents=1;shape=mxgraph.aws4.client;" vertex="1" parent="1">
          <mxGeometry x="450" y="448.5" width="57.47" height="56" as="geometry" />
        </mxCell>
        <mxCell id="JRJofBlBlLtypBgcl_WS-10" value="" style="sketch=0;outlineConnect=0;fontColor=#232F3E;gradientColor=none;fillColor=#232F3D;strokeColor=none;dashed=0;verticalLabelPosition=bottom;verticalAlign=top;align=center;html=1;fontSize=12;fontStyle=0;aspect=fixed;pointerEvents=1;shape=mxgraph.aws4.mobile_client;" vertex="1" parent="1">
          <mxGeometry x="410" y="444" width="35.74" height="68" as="geometry" />
        </mxCell>
        <mxCell id="JRJofBlBlLtypBgcl_WS-11" value="&lt;b&gt;https://hoangdevops.com/&lt;/b&gt;" style="text;strokeColor=none;align=center;fillColor=none;html=1;verticalAlign=middle;whiteSpace=wrap;rounded=0;" vertex="1" parent="1">
          <mxGeometry x="596.5" y="642" width="185" height="39.5" as="geometry" />
        </mxCell>
        <mxCell id="JRJofBlBlLtypBgcl_WS-12" value="&lt;b&gt;&lt;font style=&quot;font-size: 17px;&quot;&gt;DNS&lt;/font&gt;&lt;br&gt;&lt;/b&gt;" style="text;strokeColor=none;align=center;fillColor=none;html=1;verticalAlign=middle;whiteSpace=wrap;rounded=0;" vertex="1" parent="1">
          <mxGeometry x="733.5" y="448.5" width="56.5" height="41.5" as="geometry" />
        </mxCell>
        <mxCell id="JRJofBlBlLtypBgcl_WS-13" value="Virtual Private Netword" style="points=[[0,0],[0.25,0],[0.5,0],[0.75,0],[1,0],[1,0.25],[1,0.5],[1,0.75],[1,1],[0.75,1],[0.5,1],[0.25,1],[0,1],[0,0.75],[0,0.5],[0,0.25]];outlineConnect=0;gradientColor=none;html=1;whiteSpace=wrap;fontSize=12;fontStyle=0;container=1;pointerEvents=0;collapsible=0;recursiveResize=0;shape=mxgraph.aws4.group;grIcon=mxgraph.aws4.group_vpc;strokeColor=#248814;fillColor=none;verticalAlign=top;align=left;spacingLeft=30;fontColor=#AAB7B8;dashed=0;" vertex="1" parent="1">
          <mxGeometry x="860" y="283" width="944" height="515" as="geometry" />
        </mxCell>
        <mxCell id="JRJofBlBlLtypBgcl_WS-14" value="&lt;b&gt;&lt;span style=&quot;font-size: 17px;&quot;&gt;Apache Server&lt;/span&gt;&lt;br&gt;&lt;/b&gt;" style="text;strokeColor=none;align=center;fillColor=none;html=1;verticalAlign=middle;whiteSpace=wrap;rounded=0;" vertex="1" parent="JRJofBlBlLtypBgcl_WS-13">
          <mxGeometry x="656" y="263" width="132" height="41.5" as="geometry" />
        </mxCell>
        <mxCell id="JRJofBlBlLtypBgcl_WS-15" value="Public subnet a" style="points=[[0,0],[0.25,0],[0.5,0],[0.75,0],[1,0],[1,0.25],[1,0.5],[1,0.75],[1,1],[0.75,1],[0.5,1],[0.25,1],[0,1],[0,0.75],[0,0.5],[0,0.25]];outlineConnect=0;gradientColor=none;html=1;whiteSpace=wrap;fontSize=12;fontStyle=0;container=1;pointerEvents=0;collapsible=0;recursiveResize=0;shape=mxgraph.aws4.group;grIcon=mxgraph.aws4.group_security_group;grStroke=0;strokeColor=#248814;fillColor=#E9F3E6;verticalAlign=top;align=left;spacingLeft=30;fontColor=#248814;dashed=0;" vertex="1" parent="JRJofBlBlLtypBgcl_WS-13">
          <mxGeometry x="84" y="60" width="348" height="192" as="geometry" />
        </mxCell>
        <mxCell id="JRJofBlBlLtypBgcl_WS-16" value="" style="sketch=0;points=[[0,0,0],[0.25,0,0],[0.5,0,0],[0.75,0,0],[1,0,0],[0,1,0],[0.25,1,0],[0.5,1,0],[0.75,1,0],[1,1,0],[0,0.25,0],[0,0.5,0],[0,0.75,0],[1,0.25,0],[1,0.5,0],[1,0.75,0]];outlineConnect=0;fontColor=#232F3E;gradientColor=#F78E04;gradientDirection=north;fillColor=#D05C17;strokeColor=#ffffff;dashed=0;verticalLabelPosition=bottom;verticalAlign=top;align=center;html=1;fontSize=12;fontStyle=0;aspect=fixed;shape=mxgraph.aws4.resourceIcon;resIcon=mxgraph.aws4.ec2;" vertex="1" parent="JRJofBlBlLtypBgcl_WS-13">
          <mxGeometry x="224" y="119" width="72" height="72" as="geometry" />
        </mxCell>
        <mxCell id="JRJofBlBlLtypBgcl_WS-17" value="Public subnet b" style="points=[[0,0],[0.25,0],[0.5,0],[0.75,0],[1,0],[1,0.25],[1,0.5],[1,0.75],[1,1],[0.75,1],[0.5,1],[0.25,1],[0,1],[0,0.75],[0,0.5],[0,0.25]];outlineConnect=0;gradientColor=none;html=1;whiteSpace=wrap;fontSize=12;fontStyle=0;container=1;pointerEvents=0;collapsible=0;recursiveResize=0;shape=mxgraph.aws4.group;grIcon=mxgraph.aws4.group_security_group;grStroke=0;strokeColor=#248814;fillColor=#E9F3E6;verticalAlign=top;align=left;spacingLeft=30;fontColor=#248814;dashed=0;" vertex="1" parent="JRJofBlBlLtypBgcl_WS-13">
          <mxGeometry x="76.5" y="263" width="359" height="201" as="geometry" />
        </mxCell>
        <mxCell id="JRJofBlBlLtypBgcl_WS-18" value="&lt;span style=&quot;font-size: 17px;&quot;&gt;&lt;b&gt;NAT Gateway&lt;/b&gt;&lt;/span&gt;" style="text;strokeColor=none;align=center;fillColor=none;html=1;verticalAlign=middle;whiteSpace=wrap;rounded=0;" vertex="1" parent="JRJofBlBlLtypBgcl_WS-17">
          <mxGeometry x="20.38" y="115.09" width="132" height="41.5" as="geometry" />
        </mxCell>
        <mxCell id="JRJofBlBlLtypBgcl_WS-19" value="" style="outlineConnect=0;dashed=0;verticalLabelPosition=bottom;verticalAlign=top;align=center;html=1;shape=mxgraph.aws3.application_load_balancer;fillColor=#F58536;gradientColor=none;" vertex="1" parent="JRJofBlBlLtypBgcl_WS-13">
          <mxGeometry x="296" y="304.5" width="76" height="77.44" as="geometry" />
        </mxCell>
        <mxCell id="JRJofBlBlLtypBgcl_WS-20" value="" style="sketch=0;outlineConnect=0;fontColor=#232F3E;gradientColor=none;fillColor=#4D27AA;strokeColor=none;dashed=0;verticalLabelPosition=bottom;verticalAlign=top;align=center;html=1;fontSize=12;fontStyle=0;aspect=fixed;pointerEvents=1;shape=mxgraph.aws4.nat_gateway;" vertex="1" parent="JRJofBlBlLtypBgcl_WS-13">
          <mxGeometry x="128" y="308.34000000000003" width="69.75" height="69.75" as="geometry" />
        </mxCell>
        <mxCell id="JRJofBlBlLtypBgcl_WS-21" style="edgeStyle=orthogonalEdgeStyle;rounded=0;orthogonalLoop=1;jettySize=auto;html=1;entryX=0;entryY=0.5;entryDx=0;entryDy=0;entryPerimeter=0;" edge="1" parent="JRJofBlBlLtypBgcl_WS-13" source="JRJofBlBlLtypBgcl_WS-20" target="JRJofBlBlLtypBgcl_WS-19">
          <mxGeometry relative="1" as="geometry" />
        </mxCell>
        <mxCell id="JRJofBlBlLtypBgcl_WS-22" value="&lt;b&gt;&lt;font style=&quot;font-size: 17px;&quot;&gt;CloudWatch&lt;/font&gt;&lt;br&gt;&lt;/b&gt;" style="text;strokeColor=none;align=center;fillColor=none;html=1;verticalAlign=middle;whiteSpace=wrap;rounded=0;" vertex="1" parent="JRJofBlBlLtypBgcl_WS-13">
          <mxGeometry x="696.5" y="464" width="132" height="41.5" as="geometry" />
        </mxCell>
        <mxCell id="JRJofBlBlLtypBgcl_WS-23" value="" style="sketch=0;points=[[0,0,0],[0.25,0,0],[0.5,0,0],[0.75,0,0],[1,0,0],[0,1,0],[0.25,1,0],[0.5,1,0],[0.75,1,0],[1,1,0],[0,0.25,0],[0,0.5,0],[0,0.75,0],[1,0.25,0],[1,0.5,0],[1,0.75,0]];points=[[0,0,0],[0.25,0,0],[0.5,0,0],[0.75,0,0],[1,0,0],[0,1,0],[0.25,1,0],[0.5,1,0],[0.75,1,0],[1,1,0],[0,0.25,0],[0,0.5,0],[0,0.75,0],[1,0.25,0],[1,0.5,0],[1,0.75,0]];outlineConnect=0;fontColor=#232F3E;gradientColor=#F34482;gradientDirection=north;fillColor=#BC1356;strokeColor=#ffffff;dashed=0;verticalLabelPosition=bottom;verticalAlign=top;align=center;html=1;fontSize=12;fontStyle=0;aspect=fixed;shape=mxgraph.aws4.resourceIcon;resIcon=mxgraph.aws4.cloudwatch_2;" vertex="1" parent="JRJofBlBlLtypBgcl_WS-13">
          <mxGeometry x="728" y="399" width="69" height="69" as="geometry" />
        </mxCell>
        <mxCell id="cYWh427gpe7XcU9TXILn-1" value="" style="sketch=0;points=[[0,0,0],[0.25,0,0],[0.5,0,0],[0.75,0,0],[1,0,0],[0,1,0],[0.25,1,0],[0.5,1,0],[0.75,1,0],[1,1,0],[0,0.25,0],[0,0.5,0],[0,0.75,0],[1,0.25,0],[1,0.5,0],[1,0.75,0]];outlineConnect=0;fontColor=#232F3E;gradientColor=#60A337;gradientDirection=north;fillColor=#277116;strokeColor=#ffffff;dashed=0;verticalLabelPosition=bottom;verticalAlign=top;align=center;html=1;fontSize=12;fontStyle=0;aspect=fixed;shape=mxgraph.aws4.resourceIcon;resIcon=mxgraph.aws4.s3;" vertex="1" parent="JRJofBlBlLtypBgcl_WS-13">
          <mxGeometry x="610" y="403" width="65" height="65" as="geometry" />
        </mxCell>
        <mxCell id="cYWh427gpe7XcU9TXILn-2" value="&lt;b&gt;&lt;font style=&quot;font-size: 17px;&quot;&gt;S3&lt;/font&gt;&lt;br&gt;&lt;/b&gt;" style="text;strokeColor=none;align=center;fillColor=none;html=1;verticalAlign=middle;whiteSpace=wrap;rounded=0;" vertex="1" parent="JRJofBlBlLtypBgcl_WS-13">
          <mxGeometry x="576.5" y="464" width="132" height="41.5" as="geometry" />
        </mxCell>
        <mxCell id="JRJofBlBlLtypBgcl_WS-24" style="edgeStyle=orthogonalEdgeStyle;rounded=0;orthogonalLoop=1;jettySize=auto;html=1;entryX=0;entryY=0.75;entryDx=0;entryDy=0;entryPerimeter=0;" edge="1" parent="1" source="JRJofBlBlLtypBgcl_WS-19" target="JRJofBlBlLtypBgcl_WS-5">
          <mxGeometry relative="1" as="geometry" />
        </mxCell>
        <mxCell id="JRJofBlBlLtypBgcl_WS-25" value="&lt;b&gt;&lt;font style=&quot;font-size: 17px;&quot;&gt;Bastion Host&lt;/font&gt;&lt;br&gt;&lt;/b&gt;" style="text;strokeColor=none;align=center;fillColor=none;html=1;verticalAlign=middle;whiteSpace=wrap;rounded=0;" vertex="1" parent="1">
          <mxGeometry x="1054" y="470.5" width="132" height="41.5" as="geometry" />
        </mxCell>
        <mxCell id="JRJofBlBlLtypBgcl_WS-26" style="edgeStyle=orthogonalEdgeStyle;rounded=0;orthogonalLoop=1;jettySize=auto;html=1;" edge="1" parent="1" source="JRJofBlBlLtypBgcl_WS-3" target="JRJofBlBlLtypBgcl_WS-20">
          <mxGeometry relative="1" as="geometry">
            <Array as="points">
              <mxPoint x="904" y="462" />
              <mxPoint x="904" y="626" />
            </Array>
          </mxGeometry>
        </mxCell>
        <mxCell id="JRJofBlBlLtypBgcl_WS-27" style="edgeStyle=orthogonalEdgeStyle;rounded=0;orthogonalLoop=1;jettySize=auto;html=1;entryX=0;entryY=0.25;entryDx=0;entryDy=0;entryPerimeter=0;" edge="1" parent="1" source="JRJofBlBlLtypBgcl_WS-15" target="JRJofBlBlLtypBgcl_WS-5">
          <mxGeometry relative="1" as="geometry">
            <Array as="points">
              <mxPoint x="1384" y="439" />
              <mxPoint x="1384" y="496" />
            </Array>
          </mxGeometry>
        </mxCell>
        <mxCell id="JRJofBlBlLtypBgcl_WS-28" value="" style="curved=1;endArrow=classic;html=1;rounded=0;entryX=0;entryY=0.5;entryDx=0;entryDy=0;entryPerimeter=0;exitX=1.006;exitY=0.795;exitDx=0;exitDy=0;exitPerimeter=0;dashed=1;dashPattern=1 4;" edge="1" parent="1" source="JRJofBlBlLtypBgcl_WS-8" target="JRJofBlBlLtypBgcl_WS-7">
          <mxGeometry width="50" height="50" relative="1" as="geometry">
            <mxPoint x="568" y="584" as="sourcePoint" />
            <mxPoint x="618" y="534" as="targetPoint" />
            <Array as="points">
              <mxPoint x="640" y="558" />
              <mxPoint x="604" y="570" />
              <mxPoint x="556" y="558" />
              <mxPoint x="580" y="582" />
            </Array>
          </mxGeometry>
        </mxCell>
        <mxCell id="JRJofBlBlLtypBgcl_WS-29" value="" style="sketch=0;outlineConnect=0;fontColor=#232F3E;gradientColor=none;fillColor=#232F3D;strokeColor=none;dashed=0;verticalLabelPosition=bottom;verticalAlign=top;align=center;html=1;fontSize=12;fontStyle=0;aspect=fixed;pointerEvents=1;shape=mxgraph.aws4.user;" vertex="1" parent="1">
          <mxGeometry x="656" y="351" width="48" height="48" as="geometry" />
        </mxCell>
        <mxCell id="JRJofBlBlLtypBgcl_WS-30" value="&lt;b&gt;&lt;span style=&quot;font-size: 17px;&quot;&gt;User Dev&lt;/span&gt;&lt;br&gt;&lt;/b&gt;" style="text;strokeColor=none;align=center;fillColor=none;html=1;verticalAlign=middle;whiteSpace=wrap;rounded=0;" vertex="1" parent="1">
          <mxGeometry x="614" y="390.5" width="132" height="41.5" as="geometry" />
        </mxCell>
        <mxCell id="JRJofBlBlLtypBgcl_WS-31" value="" style="endArrow=classic;html=1;rounded=0;exitX=1.108;exitY=0.533;exitDx=0;exitDy=0;exitPerimeter=0;entryX=0.403;entryY=0.2;entryDx=0;entryDy=0;entryPerimeter=0;" edge="1" parent="1" source="JRJofBlBlLtypBgcl_WS-29" target="JRJofBlBlLtypBgcl_WS-2">
          <mxGeometry width="50" height="50" relative="1" as="geometry">
            <mxPoint x="808" y="368" as="sourcePoint" />
            <mxPoint x="858" y="318" as="targetPoint" />
          </mxGeometry>
        </mxCell>
      </root>
    </mxGraphModel>
  </diagram>
</mxfile>
